<svg xmlns="http://www.w3.org/2000/svg" width="1200" height="740" viewBox="0 0 1200 740"><rect width="1200" height="740" fill="#f5f6fa"/><style>text{font-family:Arial,sans-serif;fill:#202940}.sub{fill:#5b667b}</style><text x="56" y="66" font-size="30" font-weight="700">My Timetable · App icon family</text><text x="56" y="99" font-size="17" class="sub">Shared calendar identity. Distinct purpose. Matched to the new interface.</text><rect x="48" y="134" width="540" height="554" rx="20" fill="white" stroke="#dfe4ed"/><rect x="612" y="134" width="540" height="554" rx="20" fill="white" stroke="#dfe4ed"/><defs><clipPath id="left"><rect x="158" y="172" width="320" height="320" rx="70"/></clipPath><clipPath id="right"><rect x="722" y="172" width="320" height="320" rx="70"/></clipPath></defs><g clip-path="url(#left)"><svg x="158" y="172" width="320" height="320" xmlns="http://www.w3.org/2000/svg" viewBox="0 0 512 512"><title>My Timetable — scheduled sessions</title><rect width="512" height="512" fill="#3e51c7"/><rect x="112" y="144" width="288" height="264" rx="32" fill="white"/><path d="M176 112v56m160-56v56" stroke="white" stroke-width="24" stroke-linecap="round"/><path d="M112 208h288" stroke="#3e51c7" stroke-width="16"/><rect x="150" y="242" width="80" height="30" rx="8" fill="#3e51c7"/><rect x="246" y="242" width="114" height="30" rx="8" fill="#eef0ff"/><rect x="150" y="296" width="80" height="30" rx="8" fill="#eef0ff"/><rect x="246" y="296" width="114" height="30" rx="8" fill="#3e51c7"/><rect x="150" y="350" width="80" height="30" rx="8" fill="#3e51c7"/><rect x="246" y="350" width="114" height="30" rx="8" fill="#eef0ff"/></svg></g><g clip-path="url(#right)"><svg x="722" y="172" width="320" height="320" xmlns="http://www.w3.org/2000/svg" viewBox="0 0 512 512"><title>Timetable Admin — calendar analytics</title><rect width="512" height="512" fill="#202940"/><rect x="112" y="144" width="288" height="264" rx="32" fill="white"/><path d="M176 112v56m160-56v56" stroke="white" stroke-width="24" stroke-linecap="round"/><path d="M112 208h288" stroke="#202940" stroke-width="16"/><rect x="154" y="304" width="48" height="64" rx="10" fill="#3e51c7"/><rect x="232" y="266" width="48" height="102" rx="10" fill="#3e51c7"/><rect x="310" y="228" width="48" height="140" rx="10" fill="#196c54"/></svg></g><text x="318" y="536" text-anchor="middle" font-size="25" font-weight="700">My Timetable</text><text x="882" y="536" text-anchor="middle" font-size="25" font-weight="700">Timetable Admin</text><text x="318" y="566" text-anchor="middle" font-size="16" class="sub">Session blocks · Indigo</text><text x="882" y="566" text-anchor="middle" font-size="16" class="sub">Calendar analytics · Navy</text><svg x="238" y="604" width="48" height="48" xmlns="http://www.w3.org/2000/svg" viewBox="0 0 512 512"><title>My Timetable — scheduled sessions</title><rect width="512" height="512" fill="#3e51c7"/><rect x="112" y="144" width="288" height="264" rx="32" fill="white"/><path d="M160 112v64m192-64v64" stroke="white" stroke-width="32" stroke-linecap="round"/><path d="M112 208h288" stroke="#3e51c7" stroke-width="16"/><path d="M160 264h64m64 0h64m-192 80h64m64 0h64" stroke="#3e51c7" stroke-width="36" stroke-linecap="round"/></svg><svg x="310" y="612" width="32" height="32" xmlns="http://www.w3.org/2000/svg" viewBox="0 0 512 512"><title>My Timetable — scheduled sessions</title><rect width="512" height="512" fill="#3e51c7"/><rect x="112" y="144" width="288" height="264" rx="32" fill="white"/><path d="M160 112v64m192-64v64" stroke="white" stroke-width="32" stroke-linecap="round"/><path d="M112 208h288" stroke="#3e51c7" stroke-width="16"/><path d="M160 264h64m64 0h64m-192 80h64m64 0h64" stroke="#3e51c7" stroke-width="36" stroke-linecap="round"/></svg><svg x="366" y="620" width="16" height="16" xmlns="http://www.w3.org/2000/svg" viewBox="0 0 512 512"><title>My Timetable — scheduled sessions</title><rect width="512" height="512" fill="#3e51c7"/><rect x="112" y="144" width="288" height="264" rx="32" fill="white"/><path d="M160 112v64m192-64v64" stroke="white" stroke-width="32" stroke-linecap="round"/><path d="M112 208h288" stroke="#3e51c7" stroke-width="16"/><path d="M160 264h64m64 0h64m-192 80h64m64 0h64" stroke="#3e51c7" stroke-width="36" stroke-linecap="round"/></svg><svg x="802" y="604" width="48" height="48" xmlns="http://www.w3.org/2000/svg" viewBox="0 0 512 512"><title>Timetable Admin — calendar analytics</title><rect width="512" height="512" fill="#202940"/><rect x="112" y="144" width="288" height="264" rx="32" fill="white"/><path d="M160 112v64m192-64v64" stroke="white" stroke-width="32" stroke-linecap="round"/><path d="M112 208h288" stroke="#202940" stroke-width="16"/><rect x="154" y="304" width="48" height="64" rx="10" fill="#3e51c7"/><rect x="232" y="266" width="48" height="102" rx="10" fill="#3e51c7"/><rect x="310" y="228" width="48" height="140" rx="10" fill="#196c54"/></svg><svg x="874" y="612" width="32" height="32" xmlns="http://www.w3.org/2000/svg" viewBox="0 0 512 512"><title>Timetable Admin — calendar analytics</title><rect width="512" height="512" fill="#202940"/><rect x="112" y="144" width="288" height="264" rx="32" fill="white"/><path d="M160 112v64m192-64v64" stroke="white" stroke-width="32" stroke-linecap="round"/><path d="M112 208h288" stroke="#202940" stroke-width="16"/><rect x="154" y="304" width="48" height="64" rx="10" fill="#3e51c7"/><rect x="232" y="266" width="48" height="102" rx="10" fill="#3e51c7"/><rect x="310" y="228" width="48" height="140" rx="10" fill="#196c54"/></svg><svg x="930" y="620" width="16" height="16" xmlns="http://www.w3.org/2000/svg" viewBox="0 0 512 512"><title>Timetable Admin — calendar analytics</title><rect width="512" height="512" fill="#202940"/><rect x="112" y="144" width="288" height="264" rx="32" fill="white"/><path d="M160 112v64m192-64v64" stroke="white" stroke-width="32" stroke-linecap="round"/><path d="M112 208h288" stroke="#202940" stroke-width="16"/><rect x="154" y="304" width="48" height="64" rx="10" fill="#3e51c7"/><rect x="232" y="266" width="48" height="102" rx="10" fill="#3e51c7"/><rect x="310" y="228" width="48" height="140" rx="10" fill="#196c54"/></svg></svg>